<?xml version="1.0" standalone="no"?>
<!DOCTYPE svg PUBLIC "-//W3C//DTD SVG 20010904//EN"
 "http://www.w3.org/TR/2001/REC-SVG-20010904/DTD/svg10.dtd">
<svg version="1.0" xmlns="http://www.w3.org/2000/svg"
 width="300.000000pt" height="270.000000pt" viewBox="0 0 300.000000 270.000000"
 preserveAspectRatio="xMidYMid meet">

<g transform="translate(0.000000,270.000000) scale(0.100000,-0.100000)"
fill="#000000" stroke="none">
<path d="M1330 2617 c0 -57 27 -85 68 -71 24 8 27 15 30 62 2 30 -1 52 -7 52
-5 0 -11 -19 -13 -42 -2 -35 -7 -43 -23 -43 -16 0 -21 8 -23 43 -2 28 -8 42
-18 42 -10 0 -14 -12 -14 -43z"/>
<path d="M1505 2648 c-9 -29 -9 -108 0 -108 5 0 20 -3 33 -6 16 -5 22 -2 22
10 0 9 -8 16 -19 16 -16 0 -17 6 -13 50 3 34 1 50 -7 50 -6 0 -13 -6 -16 -12z"/>
<path d="M1170 2630 c-11 -11 -20 -29 -20 -40 0 -27 35 -60 63 -60 24 0 65 35
54 46 -3 3 -17 -2 -31 -11 -21 -14 -29 -15 -41 -5 -34 28 -9 72 36 63 31 -6
41 10 13 21 -29 11 -54 6 -74 -14z"/>
<path d="M1640 2631 c0 -5 5 -13 10 -16 6 -4 10 -25 8 -48 -4 -55 15 -60 25
-8 6 31 13 41 28 41 19 0 26 15 12 23 -20 11 -83 17 -83 8z"/>
<path d="M1781 2569 c-17 -48 -13 -77 10 -89 34 -19 66 -4 79 35 18 56 7 77
-16 30 -23 -47 -34 -57 -50 -44 -10 8 -10 19 1 49 13 36 11 50 -6 50 -4 0 -12
-14 -18 -31z"/>
<path d="M929 2580 c-15 -9 -15 -14 3 -64 20 -53 21 -54 49 -44 37 13 37 28 2
28 l-28 0 24 19 c25 19 16 36 -13 25 -9 -3 -16 -1 -16 5 0 7 7 14 15 17 8 4
15 10 15 15 0 12 -31 11 -51 -1z"/>
<path d="M1934 2489 c-18 -36 -22 -55 -15 -62 7 -7 13 -5 18 9 6 17 8 17 13
-5 7 -32 30 -40 30 -11 0 12 10 30 21 39 27 21 19 53 -16 69 -24 11 -26 9 -51
-39z m56 -5 c0 -8 -7 -14 -15 -14 -17 0 -18 2 -9 24 7 18 24 12 24 -10z"/>
<path d="M705 2470 c-7 -11 4 -98 15 -119 6 -10 11 -7 22 15 11 22 20 29 41
27 37 -2 34 10 -10 44 -52 41 -61 45 -68 33z m45 -51 c0 -5 -4 -9 -10 -9 -5 0
-10 7 -10 16 0 8 5 12 10 9 6 -3 10 -10 10 -16z"/>
<path d="M2073 2409 c-50 -35 -54 -49 -16 -46 21 2 30 -5 41 -27 18 -36 28
-22 38 52 8 62 -1 65 -63 21z m40 -20 c-4 -15 -9 -17 -17 -9 -8 8 -7 13 4 20
8 5 16 10 17 10 0 0 -1 -9 -4 -21z"/>
<path d="M587 2394 c-9 -9 54 -94 70 -94 19 0 17 7 -19 56 -31 44 -39 50 -51
38z"/>
<path d="M482 2304 c-25 -17 -30 -61 -9 -86 44 -57 136 10 97 72 -7 12 -12 12
-29 -4 -27 -24 -27 -39 -1 -31 22 7 26 -5 8 -23 -18 -18 -46 -14 -58 8 -13 25
-6 38 26 50 13 5 24 14 24 20 0 15 -33 12 -58 -6z"/>
<path d="M2271 2256 c-29 -29 -39 -46 -31 -51 6 -4 22 3 35 15 l24 23 -10 -37
c-16 -58 -1 -62 47 -15 45 44 51 78 7 37 l-25 -23 7 41 c3 23 2 44 -3 48 -5 3
-28 -14 -51 -38z"/>
<path d="M350 2160 c-24 -24 -25 -48 -4 -78 20 -29 79 -31 94 -3 17 32 12 69
-12 85 -30 21 -54 20 -78 -4z m70 -29 c7 -15 6 -23 -6 -35 -18 -18 -17 -18
-38 -10 -16 6 -22 45 -9 57 13 14 43 7 53 -12z"/>
<path d="M2388 2123 c-49 -14 -64 -33 -28 -33 23 0 39 -26 33 -51 -10 -36 15
-19 46 32 44 71 36 79 -51 52z m42 -21 c0 -13 -12 -22 -22 -16 -10 6 -1 24 13
24 5 0 9 -4 9 -8z"/>
<path d="M1040 2078 c-29 -15 -50 -34 -60 -56 -9 -19 -25 -35 -40 -39 -75 -19
-130 -90 -132 -167 -1 -44 -2 -46 -39 -57 -88 -27 -128 -114 -96 -208 l16 -44
-39 -45 c-22 -25 -42 -60 -46 -79 -9 -46 9 -103 43 -139 24 -26 27 -37 28 -99
1 -74 16 -116 58 -156 35 -34 98 -59 149 -59 35 0 60 -8 95 -30 26 -17 65 -33
85 -37 25 -3 38 -11 38 -21 0 -18 -38 -71 -89 -125 l-36 -38 30 6 c17 4 40 14
53 22 29 18 82 100 82 128 0 11 16 54 35 94 l35 74 -20 41 c-11 22 -37 61 -58
85 l-38 43 -29 -25 c-45 -37 -70 -41 -125 -21 -48 17 -50 17 -70 -1 -27 -24
-39 -11 -14 16 17 19 26 21 81 16 45 -5 64 -3 73 8 16 20 -25 45 -75 45 -23 0
-53 8 -70 20 -19 13 -47 20 -78 20 -62 0 -53 15 15 23 38 5 58 3 76 -9 12 -8
31 -12 41 -9 17 5 17 8 3 40 -10 22 -28 39 -51 49 l-36 16 45 -4 c24 -3 49
-12 56 -20 15 -21 23 -10 18 22 -5 27 -5 27 14 7 15 -16 17 -25 8 -47 -7 -19
-6 -31 3 -42 17 -20 29 -12 47 28 l13 31 1 -32 c0 -17 -4 -34 -10 -38 -5 -3
-7 -12 -4 -20 4 -9 19 -13 47 -12 23 1 52 -2 64 -6 20 -7 22 -4 28 46 5 35 2
70 -7 103 -8 27 -13 65 -11 84 2 32 -1 38 -48 68 -46 30 -53 32 -84 22 -18 -6
-39 -18 -45 -26 -7 -7 -20 -14 -29 -14 -14 0 -14 2 -1 10 18 11 13 17 -33 32
-20 7 -35 18 -34 23 1 6 4 9 7 9 3 -1 15 -5 28 -9 17 -5 22 -2 22 12 1 17 1
17 11 1 11 -20 27 -22 48 -9 12 8 12 12 -2 26 -10 9 -17 22 -17 29 0 19 -96
28 -142 14 -27 -8 -44 -8 -60 0 -22 10 -22 11 7 11 51 2 61 15 37 46 -20 25
-20 27 -4 44 21 22 32 18 25 -8 -6 -23 40 -51 82 -51 28 0 32 17 10 46 -8 10
-14 28 -14 39 0 19 1 19 11 -2 15 -31 36 -36 55 -13 24 28 35 25 21 -5 -6 -14
-15 -25 -20 -25 -17 0 -7 -39 11 -45 11 -3 26 -16 35 -29 9 -15 39 -32 77 -45
34 -11 63 -20 65 -18 1 1 -3 33 -8 70 -8 54 -15 71 -33 83 -21 14 -26 14 -50
-2 -29 -19 -48 -11 -21 9 15 11 16 17 5 40 -7 15 -20 29 -31 32 -10 4 -18 11
-18 16 0 17 43 -2 62 -26 21 -27 75 -38 83 -17 11 30 4 67 -19 91 -25 28 -41
87 -26 96 4 3 11 -9 15 -25 4 -17 18 -38 31 -47 23 -15 26 -15 39 3 9 12 12
30 9 49 -5 23 -3 27 6 19 14 -14 15 -40 5 -115 l-7 -57 26 5 26 5 0 103 c0 98
-1 103 -27 130 -52 51 -120 59 -193 23z"/>
<path d="M1395 2086 c-70 -31 -66 7 -66 -605 0 -304 3 -557 7 -563 13 -20 110
-58 149 -58 37 0 125 32 125 45 0 3 -13 -1 -30 -10 -38 -20 -111 -29 -130 -16
-12 8 -9 16 16 48 17 21 34 45 38 53 9 17 -17 -11 -55 -61 l-27 -34 -38 22
-39 22 -3 135 -3 136 40 0 c22 0 43 5 47 11 5 9 -6 10 -40 5 l-46 -7 0 50 0
51 71 0 c72 0 109 11 109 33 0 8 -3 7 -9 -2 -6 -10 -35 -16 -90 -19 l-81 -5 0
65 0 65 71 47 c39 26 72 46 74 44 11 -11 45 -113 45 -135 0 -36 16 -18 25 27
4 25 3 31 -4 20 -13 -19 -15 -16 -36 48 l-17 54 38 41 c22 23 30 35 19 27 -10
-8 -28 -25 -40 -38 -19 -22 -146 -104 -152 -99 -1 2 13 33 33 70 45 86 37 87
-11 2 -20 -36 -38 -65 -40 -65 -3 0 -5 35 -5 79 l0 79 38 7 37 8 -29 8 c-16 4
-33 6 -38 3 -4 -3 -8 56 -8 130 0 75 4 136 9 136 5 0 28 -7 51 -15 69 -24 70
-16 3 12 -56 22 -63 28 -63 53 0 44 10 59 51 80 66 34 177 20 164 -21 -5 -15
-1 -17 20 -13 15 3 25 0 25 -7 0 -7 3 -9 6 -6 10 10 -16 37 -57 58 -44 22
-111 24 -154 5z"/>
<path d="M1586 2000 c3 -14 11 -32 16 -40 6 -10 7 -7 2 10 -3 14 -11 32 -16
40 -6 10 -7 7 -2 -10z"/>
<path d="M240 1997 c0 -13 77 -67 94 -67 3 0 12 14 21 30 13 26 13 30 1 30 -8
0 -16 -6 -19 -12 -3 -10 -14 -8 -43 7 -21 11 -42 21 -46 23 -5 2 -8 -3 -8 -11z"/>
<path d="M1531 1983 c-1 -6 -4 -20 -7 -30 -5 -17 -5 -17 6 0 6 10 9 23 6 30
-3 9 -5 9 -5 0z"/>
<path d="M2528 1914 c-51 -26 -65 -50 -24 -40 15 4 28 0 36 -9 16 -19 44 -19
60 0 10 12 10 21 0 45 -7 16 -15 30 -19 30 -3 -1 -27 -12 -53 -26z m48 -30
c-5 -14 -9 -15 -19 -5 -9 9 -9 14 3 21 18 11 24 6 16 -16z"/>
<path d="M1493 1913 c-18 -7 -16 -42 3 -50 8 -3 23 1 31 10 13 13 14 19 3 31
-13 17 -17 18 -37 9z"/>
<path d="M182 1888 c-23 -30 -23 -56 2 -84 21 -25 27 -27 52 -19 16 6 35 22
43 36 13 24 13 29 -2 53 -13 19 -26 26 -51 26 -18 0 -38 -6 -44 -12z m71 -29
c15 -24 1 -49 -27 -49 -29 0 -44 33 -25 56 15 18 38 15 52 -7z"/>
<path d="M1485 1814 c-12 -55 -24 -73 -70 -99 -25 -15 -44 -30 -41 -32 3 -4
70 36 104 63 7 5 23 87 18 91 -3 3 -8 -8 -11 -23z"/>
<path d="M1231 1783 c-21 -17 -23 -25 -17 -66 5 -32 12 -47 22 -47 20 0 26 19
22 80 l-3 52 -24 -19z"/>
<path d="M2583 1783 c-25 -8 -43 -21 -43 -30 0 -9 6 -13 15 -9 17 6 19 -2 6
-24 -14 -20 -2 -33 16 -18 9 7 27 13 41 13 31 0 47 24 38 58 -7 31 -14 31 -73
10z m57 -28 c0 -8 -7 -15 -15 -15 -16 0 -20 12 -8 23 11 12 23 8 23 -8z"/>
<path d="M1863 1729 c15 -12 34 -34 42 -49 14 -27 13 -29 -20 -59 -43 -38 -46
-50 -4 -21 16 12 33 20 36 17 2 -3 -2 -30 -11 -60 l-16 -54 35 -37 c63 -67 68
-142 14 -210 -28 -35 -45 -22 -19 14 l20 28 -46 97 c-25 53 -48 95 -50 92 -2
-2 14 -44 37 -93 l41 -89 -18 -33 c-10 -19 -27 -38 -38 -41 -12 -5 -20 -18
-21 -35 -1 -28 -1 -28 16 -7 25 30 37 26 45 -16 9 -47 -10 -118 -42 -160 -14
-18 -19 -30 -11 -27 8 3 25 24 38 47 19 33 24 57 24 111 0 61 3 73 27 98 35
37 52 90 43 135 -7 39 -47 109 -66 115 -10 3 -10 17 0 65 17 80 8 129 -31 165
-16 15 -35 28 -42 28 -6 0 2 -10 17 -21z"/>
<path d="M120 1728 c0 -8 12 -19 28 -24 l27 -11 -35 -10 c-19 -5 -35 -16 -35
-23 0 -19 93 -46 108 -31 7 7 6 12 -4 15 -53 16 -55 19 -16 28 49 13 47 34 -4
48 -22 6 -47 14 -55 17 -8 3 -14 -1 -14 -9z"/>
<path d="M1447 1689 c-20 -11 -22 -30 -5 -47 14 -14 48 2 48 22 0 22 -23 36
-43 25z"/>
<path d="M1590 1684 c-11 -12 -10 -18 3 -32 16 -15 17 -14 17 16 0 36 -2 38
-20 16z"/>
<path d="M1523 1673 c9 -2 23 -2 30 0 6 3 -1 5 -18 5 -16 0 -22 -2 -12 -5z"/>
<path d="M2580 1626 c0 -9 7 -16 16 -16 14 0 15 -7 10 -40 -3 -22 -3 -40 1
-40 16 1 104 71 98 79 -2 5 -22 12 -42 16 -21 3 -48 9 -60 12 -17 4 -23 1 -23
-11z m75 -36 c-3 -5 -10 -10 -16 -10 -5 0 -9 5 -9 10 0 6 7 10 16 10 8 0 12
-4 9 -10z"/>
<path d="M86 1551 c-36 -39 -8 -101 47 -101 46 0 76 72 42 100 -21 17 -29 6
-15 -20 23 -42 -38 -69 -64 -28 -8 13 -6 22 8 36 9 11 13 23 8 26 -5 3 -17 -3
-26 -13z"/>
<path d="M1245 1504 c-5 -44 -4 -69 4 -77 8 -8 11 9 11 66 0 42 -2 77 -4 77
-3 0 -8 -30 -11 -66z"/>
<path d="M1589 1503 c-13 -16 -12 -17 4 -4 9 7 17 15 17 17 0 8 -8 3 -21 -13z"/>
<path d="M1741 1507 c-9 -11 -8 -17 5 -28 13 -11 17 -10 25 2 17 28 -9 51 -30
26z"/>
<path d="M2617 1445 c-22 -25 -33 -32 -39 -23 -5 9 -8 8 -8 -5 0 -12 6 -17 18
-15 9 2 27 -8 39 -22 15 -17 22 -20 23 -10 0 8 -4 22 -9 29 -14 22 6 51 34 51
28 0 41 -30 25 -60 -8 -16 -8 -20 4 -20 30 0 36 68 8 93 -29 27 -61 20 -95
-18z"/>
<path d="M60 1345 l0 -36 58 3 c56 3 57 3 60 36 2 24 -1 32 -12 32 -9 0 -16
-9 -16 -20 0 -11 -4 -20 -10 -20 -5 0 -10 9 -10 20 0 11 -7 20 -15 20 -8 0
-15 -9 -15 -20 0 -11 -4 -20 -10 -20 -5 0 -10 9 -10 20 0 11 -4 20 -10 20 -5
0 -10 -16 -10 -35z"/>
<path d="M1545 1359 c-6 -19 7 -38 26 -39 14 0 31 31 25 45 -8 23 -44 18 -51
-6z"/>
<path d="M1515 1284 c-9 -15 -12 -23 -6 -20 11 7 35 46 28 46 -3 0 -12 -12
-22 -26z"/>
<path d="M2620 1286 c0 -9 5 -16 10 -16 16 0 12 -40 -5 -46 -8 -4 -15 -13 -15
-21 0 -10 6 -12 23 -7 107 34 119 49 59 76 -66 30 -72 31 -72 14z m70 -41 c0
-2 -7 -5 -15 -9 -9 -3 -15 0 -15 9 0 9 6 12 15 9 8 -4 15 -7 15 -9z"/>
<path d="M60 1206 c0 -48 18 -72 27 -37 4 15 13 21 33 21 16 0 35 3 44 6 32
12 15 24 -34 24 -38 0 -50 4 -50 15 0 8 -4 15 -10 15 -5 0 -10 -20 -10 -44z"/>
<path d="M1454 1235 c-8 -21 2 -45 19 -45 21 0 38 25 31 44 -8 20 -43 21 -50
1z"/>
<path d="M1761 1221 c-19 -12 -6 -43 16 -39 10 2 18 12 18 22 0 22 -14 29 -34
17z"/>
<path d="M1490 1170 c0 -23 23 -90 31 -90 4 0 1 21 -8 48 -17 52 -23 62 -23
42z"/>
<path d="M1766 1083 c-4 -9 -2 -21 4 -27 13 -13 46 17 36 33 -11 16 -33 13
-40 -6z"/>
<path d="M1589 1073 c-13 -16 -12 -17 4 -4 16 13 21 21 13 21 -2 0 -10 -8 -17
-17z"/>
<path d="M1527 1058 c-21 -11 -22 -32 -2 -48 12 -10 18 -10 30 0 33 27 8 69
-28 48z"/>
<path d="M190 1011 c0 -15 16 -22 35 -15 13 5 14 8 3 15 -18 12 -38 11 -38 0z"/>
<path d="M180 895 c-24 -24 -42 -46 -39 -49 2 -2 32 -6 67 -8 47 -3 62 -1 62
9 0 7 -6 13 -14 13 -18 0 -27 26 -20 56 9 35 -6 30 -56 -21z m30 -25 c0 -5 -7
-10 -16 -10 -8 0 -12 5 -9 10 3 6 10 10 16 10 5 0 9 -4 9 -10z"/>
<path d="M243 757 c-24 -11 -43 -27 -43 -34 0 -7 2 -13 5 -13 15 0 105 52 105
60 0 15 -20 11 -67 -13z"/>
<path d="M2490 764 c-336 -26 -862 -64 -1100 -79 -135 -9 -255 -18 -268 -22
-21 -5 -23 -10 -17 -39 l6 -34 -120 0 c-68 0 -122 4 -126 10 -3 5 16 24 42 41
l48 31 -35 -7 c-44 -9 -163 -68 -168 -83 -3 -9 42 -12 167 -12 124 0 171 -3
171 -12 0 -6 7 -19 15 -28 14 -16 14 -20 -2 -48 -16 -29 -17 -32 0 -49 14 -17
15 -24 4 -52 -10 -26 -9 -33 3 -41 11 -7 12 -13 2 -35 -15 -33 -16 -31 10 -54
18 -18 20 -24 10 -46 -10 -21 -9 -27 4 -32 23 -9 649 21 994 47 74 6 254 19
400 30 417 31 411 30 417 46 3 8 -5 26 -17 39 -23 24 -23 25 -5 45 16 18 17
26 8 50 -9 23 -8 32 3 41 18 15 18 33 0 49 -12 9 -13 17 -4 36 9 19 8 28 -6
43 -16 18 -16 21 -2 43 14 21 14 26 1 46 -10 13 -13 31 -9 48 4 17 2 29 -7 35
-19 12 -223 9 -419 -7z m-6 -53 c3 -4 -1 -16 -8 -27 -10 -13 -11 -26 -5 -42
15 -39 10 -70 -12 -83 -28 -15 -46 2 -25 24 14 14 15 22 4 62 -12 43 -11 48 7
61 22 16 32 18 39 5z m-154 -15 c0 -8 -4 -18 -10 -21 -5 -3 -10 -26 -10 -51 0
-48 -14 -84 -32 -84 -7 0 -9 19 -5 56 3 35 1 64 -6 76 -10 15 -9 21 3 28 23
15 60 12 60 -4z m63 1 c3 -8 8 -44 12 -80 6 -58 5 -67 -9 -67 -9 0 -16 7 -16
15 0 8 -4 15 -10 15 -5 0 -10 -7 -10 -15 0 -8 -7 -15 -15 -15 -19 0 -19 16 1
95 16 61 35 83 47 52z m-263 -7 c11 -7 15 -26 14 -69 -1 -63 -15 -91 -44 -91
-32 0 -43 26 -37 86 8 75 29 98 67 74z m110 -10 c8 -16 8 -28 -3 -49 -12 -24
-12 -32 -1 -52 17 -31 17 -39 0 -39 -7 0 -21 10 -30 23 -15 20 -16 20 -14 2 2
-12 -4 -21 -15 -23 -16 -3 -18 3 -16 60 1 34 4 71 7 81 6 25 58 23 72 -3z
m-330 -16 c0 -8 -7 -14 -15 -14 -16 0 -28 -36 -23 -71 2 -13 10 -24 18 -24 8
0 15 -7 15 -15 0 -10 -10 -15 -30 -15 -29 0 -30 2 -33 49 -4 66 4 95 31 105
26 10 37 6 37 -15z m136 2 c9 -37 1 -60 -24 -71 -13 -6 -22 -19 -22 -31 0 -24
-25 -50 -34 -36 -3 6 -3 44 1 86 l6 76 33 0 c27 0 35 -5 40 -24z m-226 -6 c0
-11 -7 -20 -15 -20 -8 0 -15 -7 -15 -15 0 -8 7 -15 15 -15 22 0 18 -27 -5 -33
-11 -3 -20 -10 -20 -16 0 -6 9 -11 20 -11 27 0 25 -26 -2 -34 -42 -11 -48 -7
-48 28 0 69 12 125 29 129 33 9 41 7 41 -13z m-70 -4 c0 -8 -5 -16 -11 -18 -6
-2 -13 -32 -16 -66 -4 -43 -10 -62 -19 -62 -10 0 -14 16 -14 58 0 32 -5 63
-11 69 -18 18 -1 33 37 33 23 0 34 -5 34 -14z m-180 -10 c0 -7 -9 -16 -20 -19
-27 -7 -25 -23 3 -31 l22 -7 -22 -16 c-15 -10 -23 -26 -23 -44 0 -19 -5 -29
-15 -29 -16 0 -21 68 -9 129 6 26 11 31 35 31 18 0 29 -5 29 -14z m74 -13 c15
-78 17 -121 6 -128 -7 -4 -14 2 -17 15 l-6 23 -17 -23 c-24 -31 -41 -18 -30
23 5 17 14 51 20 75 12 48 36 56 44 15z m654 -185 c-11 -17 -12 -30 -4 -60 12
-45 1 -71 -33 -76 -25 -4 -27 5 -5 29 13 14 14 23 3 58 -14 46 -2 71 33 71 19
0 19 -2 6 -22z m-148 -3 c0 -8 -4 -15 -9 -15 -5 0 -12 -29 -16 -65 -5 -49 -10
-65 -22 -65 -13 0 -15 10 -9 59 5 43 3 60 -5 63 -7 2 -10 11 -6 21 8 22 67 24
67 2z m70 -7 c0 -13 3 -47 6 -75 6 -45 4 -53 -10 -53 -9 0 -16 8 -16 17 0 14
-3 13 -20 -5 -29 -31 -33 -28 -26 21 14 87 26 117 46 117 14 0 20 -7 20 -22z
m-250 1 c0 -6 -9 -13 -20 -16 -23 -6 -27 -33 -5 -33 8 0 15 -6 15 -14 0 -8 -7
-16 -15 -20 -21 -8 -19 -23 5 -29 34 -9 13 -37 -27 -37 -34 0 -35 1 -29 31 3
17 6 53 6 80 l0 49 35 0 c19 0 35 -5 35 -11z m95 -9 c4 -12 0 -31 -8 -43 -13
-20 -13 -27 -1 -48 7 -13 13 -27 14 -31 0 -15 -33 -8 -46 10 -13 16 -13 16
-14 0 0 -10 -7 -18 -15 -18 -11 0 -15 12 -15 53 0 83 7 97 45 97 25 0 35 -5
40 -20z m-302 -3 c3 -8 8 -44 12 -80 6 -58 5 -67 -9 -67 -9 0 -16 7 -16 15 0
8 -4 15 -10 15 -5 0 -10 -7 -10 -15 0 -8 -9 -15 -19 -15 -18 0 -18 3 -6 53 7
28 16 64 19 80 7 28 30 37 39 14z m113 -47 c2 -68 -7 -86 -46 -92 l-30 -5 0
72 c0 39 3 75 7 79 4 4 21 6 38 4 29 -3 30 -4 31 -58z"/>
<path d="M2096 644 c-10 -25 -7 -74 4 -74 6 0 10 20 10 45 0 47 -4 55 -14 29z"/>
<path d="M2202 650 c0 -14 2 -19 5 -12 2 6 2 18 0 25 -3 6 -5 1 -5 -13z"/>
<path d="M2001 634 c0 -11 3 -14 6 -6 3 7 2 16 -1 19 -3 4 -6 -2 -5 -13z"/>
<path d="M2022 410 c0 -14 2 -19 5 -12 2 6 2 18 0 25 -3 6 -5 1 -5 -13z"/>
<path d="M1830 394 c0 -8 5 -12 10 -9 6 3 10 10 10 16 0 5 -4 9 -10 9 -5 0
-10 -7 -10 -16z"/>
<path d="M1830 334 c0 -8 5 -12 10 -9 6 3 10 10 10 16 0 5 -4 9 -10 9 -5 0
-10 -7 -10 -16z"/>
<path d="M310 684 c0 -5 12 -18 26 -29 23 -18 25 -24 15 -43 -12 -23 -45 -30
-56 -12 -3 5 -8 20 -10 31 -6 30 -13 35 -21 15 -10 -27 4 -62 31 -74 55 -25
104 33 74 87 -13 24 -59 43 -59 25z"/>
<path d="M388 515 c-40 -37 -35 -57 7 -29 l25 16 -11 -31 c-6 -17 -8 -38 -5
-47 5 -12 15 -8 51 23 25 20 45 41 45 45 0 14 -27 9 -40 -7 -22 -26 -31 -16
-16 19 24 57 -1 62 -56 11z"/>
<path d="M540 426 c0 -8 5 -18 10 -21 6 -4 8 -11 4 -16 -4 -6 -11 -6 -19 1
-20 16 -40 3 -24 -16 15 -18 4 -31 -14 -16 -24 20 -28 -1 -5 -25 l22 -23 38
37 c43 42 46 53 20 76 -23 21 -32 21 -32 3z"/>
<path d="M612 306 c-35 -49 -38 -56 -19 -56 13 0 67 71 67 89 0 22 -17 10 -48
-33z"/>
<path d="M457 326 c-10 -25 6 -41 30 -31 16 7 16 8 1 12 -9 2 -18 12 -20 21
-3 15 -5 15 -11 -2z"/>
<path d="M710 271 c0 -5 14 -11 31 -15 26 -5 30 -10 27 -33 -4 -37 -41 -43
-69 -11 l-20 23 3 -25 c2 -14 14 -31 30 -39 23 -13 30 -13 52 -1 55 29 37 110
-24 110 -17 0 -30 -4 -30 -9z"/>
</g>
</svg>
